<mxfile host="app.diagrams.net" modified="2023-10-14T19:08:22.558Z" agent="Mozilla/5.0 (Windows NT 10.0; Win64; x64) AppleWebKit/537.36 (KHTML, like Gecko) Chrome/118.0.0.0 Safari/537.36" etag="zLSqBEpBiSiV6BunHtte" version="22.0.4" type="github">
  <diagram name="Strona-1" id="j4gLFCnVZBW1DzCjW9iH">
    <mxGraphModel dx="1661" dy="1571" grid="1" gridSize="10" guides="1" tooltips="1" connect="1" arrows="1" fold="1" page="1" pageScale="1" pageWidth="827" pageHeight="1169" math="0" shadow="0">
      <root>
        <mxCell id="0" />
        <mxCell id="1" parent="0" />
        <mxCell id="CtrjL1CvCEChF1eqox0r-11" style="edgeStyle=orthogonalEdgeStyle;rounded=0;orthogonalLoop=1;jettySize=auto;html=1;entryX=1;entryY=0.5;entryDx=0;entryDy=0;" edge="1" parent="1" source="CtrjL1CvCEChF1eqox0r-1" target="CtrjL1CvCEChF1eqox0r-2">
          <mxGeometry relative="1" as="geometry" />
        </mxCell>
        <mxCell id="CtrjL1CvCEChF1eqox0r-12" value="" style="edgeStyle=orthogonalEdgeStyle;rounded=0;orthogonalLoop=1;jettySize=auto;html=1;entryX=0;entryY=0.5;entryDx=0;entryDy=0;" edge="1" parent="1" source="CtrjL1CvCEChF1eqox0r-1" target="CtrjL1CvCEChF1eqox0r-3">
          <mxGeometry x="0.5557" y="10" relative="1" as="geometry">
            <mxPoint as="offset" />
          </mxGeometry>
        </mxCell>
        <mxCell id="CtrjL1CvCEChF1eqox0r-1" value="Is it devided by 4?" style="rounded=1;whiteSpace=wrap;html=1;" vertex="1" parent="1">
          <mxGeometry x="204" y="310" width="190" height="120" as="geometry" />
        </mxCell>
        <mxCell id="CtrjL1CvCEChF1eqox0r-2" value="It&#39;s not leap" style="rounded=1;whiteSpace=wrap;html=1;" vertex="1" parent="1">
          <mxGeometry x="84" y="530" width="120" height="60" as="geometry" />
        </mxCell>
        <mxCell id="CtrjL1CvCEChF1eqox0r-17" style="edgeStyle=orthogonalEdgeStyle;rounded=0;orthogonalLoop=1;jettySize=auto;html=1;entryX=1;entryY=0.5;entryDx=0;entryDy=0;" edge="1" parent="1" source="CtrjL1CvCEChF1eqox0r-3" target="CtrjL1CvCEChF1eqox0r-13">
          <mxGeometry relative="1" as="geometry" />
        </mxCell>
        <mxCell id="CtrjL1CvCEChF1eqox0r-18" style="edgeStyle=orthogonalEdgeStyle;rounded=0;orthogonalLoop=1;jettySize=auto;html=1;entryX=0;entryY=0.5;entryDx=0;entryDy=0;" edge="1" parent="1" source="CtrjL1CvCEChF1eqox0r-3" target="CtrjL1CvCEChF1eqox0r-14">
          <mxGeometry relative="1" as="geometry" />
        </mxCell>
        <mxCell id="CtrjL1CvCEChF1eqox0r-3" value="Is it devided by 100?" style="rounded=1;whiteSpace=wrap;html=1;" vertex="1" parent="1">
          <mxGeometry x="394" y="530" width="120" height="60" as="geometry" />
        </mxCell>
        <mxCell id="CtrjL1CvCEChF1eqox0r-13" value="It&#39;s leap" style="rounded=1;whiteSpace=wrap;html=1;" vertex="1" parent="1">
          <mxGeometry x="284" y="660" width="120" height="60" as="geometry" />
        </mxCell>
        <mxCell id="CtrjL1CvCEChF1eqox0r-23" style="edgeStyle=orthogonalEdgeStyle;rounded=0;orthogonalLoop=1;jettySize=auto;html=1;entryX=1;entryY=0.5;entryDx=0;entryDy=0;" edge="1" parent="1" source="CtrjL1CvCEChF1eqox0r-14" target="CtrjL1CvCEChF1eqox0r-21">
          <mxGeometry relative="1" as="geometry" />
        </mxCell>
        <mxCell id="CtrjL1CvCEChF1eqox0r-24" style="edgeStyle=orthogonalEdgeStyle;rounded=0;orthogonalLoop=1;jettySize=auto;html=1;entryX=0;entryY=0.5;entryDx=0;entryDy=0;" edge="1" parent="1" source="CtrjL1CvCEChF1eqox0r-14" target="CtrjL1CvCEChF1eqox0r-22">
          <mxGeometry relative="1" as="geometry" />
        </mxCell>
        <mxCell id="CtrjL1CvCEChF1eqox0r-14" value="Is it devided by 400?" style="rounded=1;whiteSpace=wrap;html=1;" vertex="1" parent="1">
          <mxGeometry x="504" y="660" width="120" height="60" as="geometry" />
        </mxCell>
        <mxCell id="CtrjL1CvCEChF1eqox0r-15" value="No" style="text;html=1;align=center;verticalAlign=middle;resizable=0;points=[];autosize=1;strokeColor=none;fillColor=none;" vertex="1" parent="1">
          <mxGeometry x="224" y="530" width="40" height="30" as="geometry" />
        </mxCell>
        <mxCell id="CtrjL1CvCEChF1eqox0r-16" value="Yes" style="text;html=1;align=center;verticalAlign=middle;resizable=0;points=[];autosize=1;strokeColor=none;fillColor=none;" vertex="1" parent="1">
          <mxGeometry x="324" y="528" width="40" height="30" as="geometry" />
        </mxCell>
        <mxCell id="CtrjL1CvCEChF1eqox0r-19" value="No" style="text;html=1;align=center;verticalAlign=middle;resizable=0;points=[];autosize=1;strokeColor=none;fillColor=none;" vertex="1" parent="1">
          <mxGeometry x="414" y="660" width="40" height="30" as="geometry" />
        </mxCell>
        <mxCell id="CtrjL1CvCEChF1eqox0r-20" value="Yes" style="text;html=1;align=center;verticalAlign=middle;resizable=0;points=[];autosize=1;strokeColor=none;fillColor=none;" vertex="1" parent="1">
          <mxGeometry x="458" y="660" width="40" height="30" as="geometry" />
        </mxCell>
        <mxCell id="CtrjL1CvCEChF1eqox0r-21" value="It&#39;s not leap" style="rounded=1;whiteSpace=wrap;html=1;" vertex="1" parent="1">
          <mxGeometry x="394" y="800" width="120" height="60" as="geometry" />
        </mxCell>
        <mxCell id="CtrjL1CvCEChF1eqox0r-22" value="It&#39;s leap" style="rounded=1;whiteSpace=wrap;html=1;" vertex="1" parent="1">
          <mxGeometry x="624" y="800" width="120" height="60" as="geometry" />
        </mxCell>
        <mxCell id="CtrjL1CvCEChF1eqox0r-25" value="No" style="text;html=1;align=center;verticalAlign=middle;resizable=0;points=[];autosize=1;strokeColor=none;fillColor=none;" vertex="1" parent="1">
          <mxGeometry x="524" y="800" width="40" height="30" as="geometry" />
        </mxCell>
        <mxCell id="CtrjL1CvCEChF1eqox0r-26" value="Yes" style="text;html=1;align=center;verticalAlign=middle;resizable=0;points=[];autosize=1;strokeColor=none;fillColor=none;" vertex="1" parent="1">
          <mxGeometry x="574" y="800" width="40" height="30" as="geometry" />
        </mxCell>
      </root>
    </mxGraphModel>
  </diagram>
</mxfile>
